<?xml version="1.0" encoding="iso-8859-1"?>
<!-- Generator: Adobe Illustrator 28.7.8, SVG Export Plug-In . SVG Version: 9.03 Build 56881)  -->
<svg version="1.1" xmlns="http://www.w3.org/2000/svg" xmlns:xlink="http://www.w3.org/1999/xlink" x="0px" y="0px"
	 viewBox="0 0 48 48" style="enable-background:new 0 0 48 48;" xml:space="preserve">
<g id="white_space">
</g>
<g id="Layer_1">
	<g>
		<path style="fill:#3D3C38;" d="M39.77,25.318H26.412V11.959h4.082l2.134-1.948c1.299-1.113,1.392-3.154,0.186-4.453
			C31.7,4.26,29.659,4.167,28.36,5.373L24,9.362L19.547,5.28c-1.299-1.113-3.247-1.02-4.453,0.186
			c-1.113,1.299-1.02,3.247,0.186,4.453l2.226,2.041h4.082v13.358H8.23v4.824h13.358V43.5h4.824V30.142H39.77V25.318z"/>
		<g>
			<g>
				<rect x="26.412" y="30.142" style="fill:#FF612B;" width="13.358" height="13.358"/>
			</g>
			<g>
				<rect x="8.23" y="30.142" style="fill:#FF612B;" width="13.358" height="13.358"/>
			</g>
			<g>
				<polygon style="fill:#FF612B;" points="26.412,11.959 26.412,25.318 39.77,25.318 39.77,17.989 40.976,17.989 40.976,11.959 
									"/>
			</g>
			<g>
				<polygon style="fill:#FF612B;" points="7.024,17.989 8.23,17.989 8.23,25.318 21.588,25.318 21.588,11.959 7.024,11.959 				"/>
			</g>
		</g>
	</g>
</g>
</svg>
