<?xml version="1.0" encoding="iso-8859-1"?>
<!-- Generator: Adobe Illustrator 28.7.8, SVG Export Plug-In . SVG Version: 9.03 Build 56881)  -->
<svg version="1.1" xmlns="http://www.w3.org/2000/svg" xmlns:xlink="http://www.w3.org/1999/xlink" x="0px" y="0px"
	 viewBox="0 0 48 48" style="enable-background:new 0 0 48 48;" xml:space="preserve">
<g id="white_space">
</g>
<g id="Layer_1">
	<g>
		<path style="fill:#FF612B;" d="M26.07,12.261c-4.579,4.919-5.988,12.974-5.889,16.075c-0.128,0.613-0.111,1.278,0.125,1.971
			c0.422,1.238,1.507,2.197,2.792,2.439c2.369,0.444,4.436-1.361,4.436-3.649c0-0.513,0.049-1.046-0.088-1.505
			c-0.054-0.182-0.103-0.361-0.111-0.55c-0.026-0.651-0.15-1.361-0.112-2.104c0,0,0.067-1.336,0.27-2.579
			c0.52-3.175,2.199-6.42,2.633-7.238C33.05,9.34,40.141,5.65,39.814,5.074C40.087,3.78,30.831,5.773,26.07,12.261z"/>
		<polygon style="fill:#FFFFFF;" points="31.331,30.522 31.331,35.327 17.121,35.327 17.121,30.522 6.36,30.522 6.36,40.661 
			14.722,40.661 17.121,40.661 31.331,40.661 33.147,40.661 42.093,40.661 42.093,30.522 		"/>
	</g>
	<path style="fill:#3D3C38;" d="M40.073,23.695H29.675v0.671c0.626,1.015,1.002,2.199,1.002,3.479c0,3.688-2.989,6.677-6.677,6.677
		s-6.677-2.989-6.677-6.677c0-1.246,0.354-2.403,0.949-3.4v-0.751H7.927c-1.657,0-3,1.343-3,3v16.607h38.147V26.695
		C43.073,25.039,41.73,23.695,40.073,23.695z M9.013,38.807c-0.69,0-1.25-0.56-1.25-1.25s0.56-1.25,1.25-1.25s1.25,0.56,1.25,1.25
		S9.703,38.807,9.013,38.807z M11.45,33.495c-0.69,0-1.25-0.56-1.25-1.25c0-0.69,0.56-1.25,1.25-1.25s1.25,0.56,1.25,1.25
		C12.7,32.936,12.141,33.495,11.45,33.495z M15.76,36.908c-0.69,0-1.25-0.56-1.25-1.25c0-0.69,0.56-1.25,1.25-1.25
		c0.69,0,1.25,0.56,1.25,1.25C17.01,36.349,16.45,36.908,15.76,36.908z M20.669,40.039c-0.69,0-1.25-0.56-1.25-1.25
		s0.56-1.25,1.25-1.25s1.25,0.56,1.25,1.25S21.359,40.039,20.669,40.039z M27.103,38.092c-0.69,0-1.25-0.56-1.25-1.25
		c0-0.69,0.56-1.25,1.25-1.25s1.25,0.56,1.25,1.25C28.353,37.532,27.794,38.092,27.103,38.092z M33.147,40.005
		c-0.69,0-1.25-0.56-1.25-1.25c0-0.69,0.56-1.25,1.25-1.25s1.25,0.56,1.25,1.25C34.397,39.445,33.837,40.005,33.147,40.005z
		 M34.236,33.124c-0.69,0-1.25-0.56-1.25-1.25s0.56-1.25,1.25-1.25s1.25,0.56,1.25,1.25S34.926,33.124,34.236,33.124z
		 M38.821,36.577c-0.69,0-1.25-0.56-1.25-1.25s0.56-1.25,1.25-1.25s1.25,0.56,1.25,1.25S39.511,36.577,38.821,36.577z"/>
</g>
</svg>
