<?xml version="1.0" encoding="iso-8859-1"?>
<!-- Generator: Adobe Illustrator 28.7.8, SVG Export Plug-In . SVG Version: 9.03 Build 56881)  -->
<svg version="1.1" xmlns="http://www.w3.org/2000/svg" xmlns:xlink="http://www.w3.org/1999/xlink" x="0px" y="0px"
	 viewBox="0 0 48 48" style="enable-background:new 0 0 48 48;" xml:space="preserve">
<g id="white_space">
</g>
<g id="Layer_1">
	<g id="QR_Code">
		<path style="fill:#3D3C38;" d="M34.785,12.453c0.42,0,0.762,0.342,0.762,0.762v6.872c0,0.42-0.342,0.762-0.762,0.762h-6.872
			c-0.42,0-0.762-0.342-0.762-0.762v-6.872c0-0.42,0.342-0.762,0.762-0.762H34.785 M34.785,10.314h-6.872
			c-1.602,0-2.901,1.299-2.901,2.901v6.872c0,1.602,1.299,2.901,2.901,2.901h6.872c1.602,0,2.901-1.299,2.901-2.901v-6.872
			C37.686,11.613,36.387,10.314,34.785,10.314L34.785,10.314z"/>
		<path style="fill:#3D3C38;" d="M20.325,27.151c0.42,0,0.762,0.342,0.762,0.762v6.872c0,0.42-0.342,0.762-0.762,0.762h-6.872
			c-0.42,0-0.762-0.342-0.762-0.762v-6.872c0-0.42,0.342-0.762,0.762-0.762H20.325 M20.325,25.012h-6.872
			c-1.602,0-2.901,1.299-2.901,2.901v6.872c0,1.602,1.299,2.901,2.901,2.901h6.872c1.602,0,2.901-1.299,2.901-2.901v-6.872
			C23.226,26.311,21.927,25.012,20.325,25.012L20.325,25.012z"/>
		<path style="fill:#3D3C38;" d="M20.325,12.453c0.42,0,0.762,0.342,0.762,0.762v6.872c0,0.42-0.342,0.762-0.762,0.762h-6.872
			c-0.42,0-0.762-0.342-0.762-0.762v-6.872c0-0.42,0.342-0.762,0.762-0.762H20.325 M20.325,10.314h-6.872
			c-1.602,0-2.901,1.299-2.901,2.901v6.872c0,1.602,1.299,2.901,2.901,2.901h6.872c1.602,0,2.901-1.299,2.901-2.901v-6.872
			C23.226,11.613,21.927,10.314,20.325,10.314L20.325,10.314z"/>
		<g>
			<path style="fill:#3D3C38;" d="M15.609,14.291h2.559c0.597,0,1.08,0.484,1.08,1.08v2.559c0,0.597-0.484,1.08-1.08,1.08h-2.559
				c-0.597,0-1.08-0.484-1.08-1.08v-2.559C14.529,14.775,15.013,14.291,15.609,14.291z"/>
		</g>
		<g>
			<path style="fill:#3D3C38;" d="M30.069,14.291h2.559c0.597,0,1.08,0.484,1.08,1.08v2.559c0,0.597-0.484,1.08-1.08,1.08h-2.559
				c-0.597,0-1.08-0.484-1.08-1.08v-2.559C28.989,14.775,29.473,14.291,30.069,14.291z"/>
		</g>
		<path style="fill:#3D3C38;" d="M34.785,27.151c0.42,0,0.762,0.342,0.762,0.762v6.872c0,0.42-0.342,0.762-0.762,0.762h-6.872
			c-0.42,0-0.762-0.342-0.762-0.762v-6.872c0-0.42,0.342-0.762,0.762-0.762H34.785 M34.785,25.012h-6.872
			c-1.602,0-2.901,1.299-2.901,2.901v6.872c0,1.602,1.299,2.901,2.901,2.901h6.872c1.602,0,2.901-1.299,2.901-2.901v-6.872
			C37.686,26.311,36.387,25.012,34.785,25.012L34.785,25.012z"/>
		<g>
			<path style="fill:#3D3C38;" d="M15.609,28.989h2.559c0.597,0,1.08,0.484,1.08,1.08v2.559c0,0.597-0.484,1.08-1.08,1.08h-2.559
				c-0.597,0-1.08-0.484-1.08-1.08v-2.559C14.529,29.473,15.013,28.989,15.609,28.989z"/>
		</g>
	</g>
	<g id="Camera_Focus">
		<path style="fill:#FF612B;" d="M41.361,34.573c0,3.749-3.039,6.788-6.788,6.788h-4.556c-0.591,0-1.069,0.479-1.069,1.069l0,0
			c0,0.591,0.479,1.069,1.069,1.069h4.556c4.93,0,8.927-3.997,8.927-8.927v-4.515c0-0.591-0.479-1.069-1.069-1.069h0
			c-0.591,0-1.069,0.479-1.069,1.069V34.573z"/>
		<path style="fill:#FF612B;" d="M13.427,41.361c-3.749,0-6.788-3.039-6.788-6.788v-4.515c0-0.591-0.479-1.069-1.069-1.069h0
			c-0.591,0-1.069,0.479-1.069,1.069v4.515c0,4.93,3.997,8.927,8.927,8.927H17.9c0.591,0,1.069-0.479,1.069-1.069l0,0
			c0-0.591-0.479-1.069-1.069-1.069H13.427z"/>
		<path style="fill:#FF612B;" d="M34.573,6.639c3.749,0,6.788,3.039,6.788,6.788v4.515c0,0.591,0.479,1.069,1.069,1.069h0
			c0.591,0,1.069-0.479,1.069-1.069v-4.515c0-4.93-3.997-8.927-8.927-8.927h-4.556c-0.591,0-1.069,0.479-1.069,1.069v0
			c0,0.591,0.479,1.069,1.069,1.069H34.573z"/>
		<path style="fill:#FF612B;" d="M6.639,13.427c0-3.749,3.039-6.788,6.788-6.788H17.9c0.591,0,1.069-0.479,1.069-1.069v0
			c0-0.591-0.479-1.069-1.069-1.069h-4.473C8.497,4.5,4.5,8.497,4.5,13.427v4.515c0,0.591,0.479,1.069,1.069,1.069h0
			c0.591,0,1.069-0.479,1.069-1.069V13.427z"/>
	</g>
</g>
</svg>
