<?xml version="1.0" encoding="iso-8859-1"?>
<!-- Generator: Adobe Illustrator 28.7.8, SVG Export Plug-In . SVG Version: 9.03 Build 56881)  -->
<svg version="1.1" xmlns="http://www.w3.org/2000/svg" xmlns:xlink="http://www.w3.org/1999/xlink" x="0px" y="0px"
	 viewBox="0 0 48 48" style="enable-background:new 0 0 48 48;" xml:space="preserve">
<g id="white_space">
</g>
<g id="Layer_1">
	<path style="fill:#FF612B;" d="M33.11,28.399c1.763-2.84,2.644-6.365,2.154-10.087c-0.979-6.953-6.561-12.437-13.416-13.318
		C11.86,3.819,3.438,12.241,4.613,22.229c0.881,6.855,6.365,12.437,13.22,13.318c3.721,0.49,7.247-0.392,10.087-2.154l9.401,8.813
		c2.252,2.252,6.169,0.685,6.169-2.546l0,0c0-0.979-0.392-1.861-1.077-2.546L33.11,28.399z M19.988,33.295
		c-7.149,0-13.024-5.876-13.024-13.024S12.741,7.344,19.988,7.344s13.024,5.876,13.024,13.024S27.136,33.295,19.988,33.295z"/>
	<g>
		<circle style="fill:#FFFFFF;" cx="19.988" cy="20.369" r="13.024"/>
		<polygon style="fill:#3D3C38;" points="28.289,17.997 22.36,17.997 22.36,12.067 17.616,12.067 17.616,17.997 11.686,17.997 
			11.686,22.741 17.616,22.741 17.616,28.67 22.36,28.67 22.36,22.741 28.289,22.741 		"/>
	</g>
</g>
</svg>
