<?xml version="1.0" encoding="iso-8859-1"?>
<!-- Generator: Adobe Illustrator 28.7.8, SVG Export Plug-In . SVG Version: 9.03 Build 56881)  -->
<svg version="1.1" xmlns="http://www.w3.org/2000/svg" xmlns:xlink="http://www.w3.org/1999/xlink" x="0px" y="0px"
	 viewBox="0 0 48 48" style="enable-background:new 0 0 48 48;" xml:space="preserve">
<g id="white_space">
</g>
<g id="Layer_1">
	<path style="fill:#3D3C38;" d="M21.753,20.538c-0.546,0-1.015-0.413-1.073-0.969c-0.166-1.597,0.229-3.266,1.081-4.578
		c1.557-2.395,4.43-2.792,5.973-3.005c1.719-0.237,3.22-0.519,4.178-1.58c1.229-1.359,1.412-3.305,1.412-4.344
		c0-0.597,0.483-1.08,1.08-1.08s1.08,0.483,1.08,1.08c0,2.33-0.699,4.387-1.97,5.792c-1.562,1.732-3.83,2.044-5.485,2.272
		c-2.122,0.293-3.608,0.737-4.456,2.042c-0.58,0.892-0.857,2.08-0.744,3.178c0.062,0.593-0.37,1.124-0.963,1.186
		C21.828,20.536,21.79,20.538,21.753,20.538z"/>
	<path style="fill:#FF612B;" d="M40.823,40.28H7.177c-1.475,0-2.671-1.196-2.671-2.671v-18.12c0-1.475,1.196-2.671,2.671-2.671
		h33.645c1.475,0,2.671,1.196,2.671,2.671v18.12C43.493,39.084,42.298,40.28,40.823,40.28z"/>
	<path style="fill:#FFFFFF;" d="M10.65,36.963H8.673c-0.653,0-1.183-0.53-1.183-1.183v-1.977c0-0.653,0.53-1.183,1.183-1.183h1.977
		c0.653,0,1.183,0.53,1.183,1.183v1.977C11.833,36.434,11.304,36.963,10.65,36.963z"/>
	<path style="fill:#FFFFFF;" d="M39.327,36.963H37.35c-0.653,0-1.183-0.53-1.183-1.183v-1.977c0-0.653,0.53-1.183,1.183-1.183h1.977
		c0.653,0,1.183,0.53,1.183,1.183v1.977C40.51,36.434,39.98,36.963,39.327,36.963z"/>
	<path style="fill:#FFFFFF;" d="M12.843,30.699h-4.17c-0.653,0-1.183-0.53-1.183-1.183v-1.977c0-0.653,0.53-1.183,1.183-1.183h4.17
		c0.653,0,1.183,0.53,1.183,1.183v1.977C14.026,30.169,13.496,30.699,12.843,30.699z"/>
	<path style="fill:#FFFFFF;" d="M39.327,30.699h-4.17c-0.653,0-1.183-0.53-1.183-1.183v-1.977c0-0.653,0.53-1.183,1.183-1.183h4.17
		c0.653,0,1.183,0.53,1.183,1.183v1.977C40.51,30.169,39.98,30.699,39.327,30.699z"/>
	<path style="fill:#FFFFFF;" d="M10.65,24.478H8.673c-0.653,0-1.183-0.53-1.183-1.183v-1.977c0-0.653,0.53-1.183,1.183-1.183h1.977
		c0.653,0,1.183,0.53,1.183,1.183v1.977C11.833,23.948,11.304,24.478,10.65,24.478z"/>
	<path style="fill:#FFFFFF;" d="M33.143,36.963H15.039c-0.653,0-1.183-0.53-1.183-1.183v-1.977c0-0.653,0.53-1.183,1.183-1.183
		h18.104c0.653,0,1.183,0.53,1.183,1.183v1.977C34.326,36.434,33.796,36.963,33.143,36.963z"/>
	<path style="fill:#FFFFFF;" d="M22.479,24.648h-1.977c-0.653,0-1.183-0.53-1.183-1.183v-1.977c0-0.653,0.53-1.183,1.183-1.183
		h1.977c0.653,0,1.183,0.53,1.183,1.183v1.977C23.662,24.118,23.132,24.648,22.479,24.648z"/>
	<path style="fill:#FFFFFF;" d="M16.548,24.648H14.57c-0.653,0-1.183-0.53-1.183-1.183v-1.977c0-0.653,0.53-1.183,1.183-1.183h1.977
		c0.653,0,1.183,0.53,1.183,1.183v1.977C17.73,24.118,17.201,24.648,16.548,24.648z"/>
	<path style="fill:#FFFFFF;" d="M18.862,30.699h-1.977c-0.653,0-1.183-0.53-1.183-1.183v-1.977c0-0.653,0.53-1.183,1.183-1.183
		h1.977c0.653,0,1.183,0.53,1.183,1.183v1.977C20.045,30.169,19.515,30.699,18.862,30.699z"/>
	<path style="fill:#FFFFFF;" d="M24.881,30.699h-1.977c-0.653,0-1.183-0.53-1.183-1.183v-1.977c0-0.653,0.53-1.183,1.183-1.183
		h1.977c0.653,0,1.183,0.53,1.183,1.183v1.977C26.064,30.169,25.534,30.699,24.881,30.699z"/>
	<path style="fill:#FFFFFF;" d="M30.684,30.699h-1.977c-0.653,0-1.183-0.53-1.183-1.183v-1.977c0-0.653,0.53-1.183,1.183-1.183
		h1.977c0.653,0,1.183,0.53,1.183,1.183v1.977C31.867,30.169,31.338,30.699,30.684,30.699z"/>
	<path style="fill:#FFFFFF;" d="M28.095,24.648h-1.977c-0.653,0-1.183-0.53-1.183-1.183v-1.977c0-0.653,0.53-1.183,1.183-1.183
		h1.977c0.653,0,1.183,0.53,1.183,1.183v1.977C29.278,24.118,28.748,24.648,28.095,24.648z"/>
	<path style="fill:#FFFFFF;" d="M33.711,24.648h-1.977c-0.653,0-1.183-0.53-1.183-1.183v-1.977c0-0.653,0.53-1.183,1.183-1.183
		h1.977c0.653,0,1.183,0.53,1.183,1.183v1.977C34.894,24.118,34.364,24.648,33.711,24.648z"/>
	<path style="fill:#FFFFFF;" d="M39.327,24.648H37.35c-0.653,0-1.183-0.53-1.183-1.183v-1.977c0-0.653,0.53-1.183,1.183-1.183h1.977
		c0.653,0,1.183,0.53,1.183,1.183v1.977C40.51,24.118,39.98,24.648,39.327,24.648z"/>
</g>
</svg>
